<?xml version="1.0" encoding="UTF-8" standalone="no"?>
<!DOCTYPE svg PUBLIC "-//W3C//DTD SVG 1.1//EN" "http://www.w3.org/Graphics/SVG/1.1/DTD/svg11.dtd">
<svg width="100%" height="100%" viewBox="0 0 8334 8334" version="1.1" xmlns="http://www.w3.org/2000/svg" xmlns:xlink="http://www.w3.org/1999/xlink" xml:space="preserve" xmlns:serif="http://www.serif.com/" style="fill-rule:evenodd;clip-rule:evenodd;stroke-linecap:round;stroke-linejoin:round;stroke-miterlimit:1.5;">
    <g transform="matrix(1,0,0,1,114.771,-133.81)">
        <circle cx="4051.9" cy="4300.48" r="3673.43" style="fill:rgb(235,235,235);"/>
        <clipPath id="_clip1">
            <circle cx="4051.9" cy="4300.48" r="3673.43"/>
        </clipPath>
        <g clip-path="url(#_clip1)">
            <g transform="matrix(26.1602,0,0,16.8628,-78507.5,-22990.1)">
                <rect x="2933.25" y="1315.26" width="201.706" height="734.751" style="fill:rgb(12,133,66);"/>
            </g>
            <g transform="matrix(30.9263,0,0,15.9174,-84956.5,-21746.6)">
                <rect x="2933.25" y="1315.26" width="201.706" height="734.751" style="fill:rgb(255,215,0);"/>
            </g>
            <g transform="matrix(17.5721,0,0,15.0291,-49266.5,-20578.3)">
                <rect x="2933.25" y="1315.26" width="201.706" height="734.751" style="fill:rgb(199,37,42);"/>
            </g>
            <g transform="matrix(1,0,0,1,514.193,316.043)">
                <path d="M3537.7,2741.85L3846.13,3691.1L4844.23,3691.1L4036.75,4277.77L4345.18,5227.02L3537.7,4640.35L2730.22,5227.02L3038.65,4277.77L2231.17,3691.1L3229.27,3691.1L3537.7,2741.85Z" style="fill:rgb(255,215,0);stroke:black;stroke-width:1.3px;"/>
            </g>
        </g>
    </g>
</svg>
