<?xml version="1.0" encoding="UTF-8" standalone="no"?>
<!DOCTYPE svg PUBLIC "-//W3C//DTD SVG 1.1//EN" "http://www.w3.org/Graphics/SVG/1.1/DTD/svg11.dtd">
<svg width="100%" height="100%" viewBox="0 0 8334 8334" version="1.1" xmlns="http://www.w3.org/2000/svg" xmlns:xlink="http://www.w3.org/1999/xlink" xml:space="preserve" xmlns:serif="http://www.serif.com/" style="fill-rule:evenodd;clip-rule:evenodd;stroke-linejoin:round;stroke-miterlimit:2;">
    <g transform="matrix(1,0,0,1,114.771,-133.81)">
        <circle cx="4051.9" cy="4300.48" r="3673.43" style="fill:rgb(235,235,235);"/>
        <clipPath id="_clip1">
            <circle cx="4051.9" cy="4300.48" r="3673.43"/>
        </clipPath>
        <g clip-path="url(#_clip1)">
            <g transform="matrix(11.7113,0,0,11.7113,-7261.35,-15257)">
                <rect x="605.021" y="1351.32" width="896.544" height="242.662" style="fill:white;"/>
            </g>
            <g transform="matrix(11.7113,0,0,8.78676,-7261.35,-8490.05)">
                <rect x="605.021" y="1351.32" width="896.544" height="242.662" style="fill:rgb(217,0,0);"/>
            </g>
            <g transform="matrix(11.7113,0,0,10.9605,-7261.35,-9372.34)">
                <rect x="605.021" y="1351.32" width="896.544" height="242.662" style="fill:white;"/>
            </g>
            <g transform="matrix(11.7113,0,0,10.9605,-7261.35,-7867.19)">
                <rect x="605.021" y="1351.32" width="896.544" height="242.662" style="fill:rgb(0,36,156);"/>
            </g>
            <g transform="matrix(-11.7113,1.43422e-15,-1.34228e-15,-10.9605,17409.6,16490.2)">
                <rect x="605.021" y="1351.32" width="896.544" height="242.662" style="fill:rgb(0,36,156);"/>
            </g>
        </g>
    </g>
</svg>
