<?xml version="1.0" encoding="UTF-8" standalone="no"?>
<!DOCTYPE svg PUBLIC "-//W3C//DTD SVG 1.1//EN" "http://www.w3.org/Graphics/SVG/1.1/DTD/svg11.dtd">
<svg width="100%" height="100%" viewBox="0 0 8334 8334" version="1.1" xmlns="http://www.w3.org/2000/svg" xmlns:xlink="http://www.w3.org/1999/xlink" xml:space="preserve" xmlns:serif="http://www.serif.com/" style="fill-rule:evenodd;clip-rule:evenodd;stroke-linejoin:round;stroke-miterlimit:2;">
    <g transform="matrix(1,0,0,1,114.771,-133.81)">
        <circle cx="4051.9" cy="4300.48" r="3673.43" style="fill:rgb(235,235,235);"/>
        <clipPath id="_clip1">
            <circle cx="4051.9" cy="4300.48" r="3673.43"/>
        </clipPath>
        <g clip-path="url(#_clip1)">
            <g transform="matrix(18.0271,0,0,15.2399,-52838.2,-20166.7)">
                <rect x="2933.25" y="1315.26" width="201.706" height="734.751" style="fill:white;"/>
            </g>
            <g transform="matrix(31.7194,0,0,14.3855,-89910.6,-19042.9)">
                <rect x="2933.25" y="1315.26" width="201.706" height="734.751" style="fill:rgb(131,7,43);"/>
            </g>
            <g transform="matrix(6.47908e-17,-1.16717,1.66081,9.21937e-17,1114.63,2175.13)">
                <path d="M1067.41,769.734L1418.43,1471.78L716.392,1471.78L1067.41,769.734Z" style="fill:rgb(131,7,43);"/>
            </g>
            <g transform="matrix(6.47908e-17,-1.16717,1.66081,9.21937e-17,1114.63,2714.77)">
                <path d="M1067.41,769.734L1418.43,1471.78L716.392,1471.78L1067.41,769.734Z" style="fill:rgb(131,7,43);"/>
            </g>
            <g transform="matrix(6.47908e-17,-1.16717,1.66081,9.21937e-17,1114.63,3254.41)">
                <path d="M1067.41,769.734L1418.43,1471.78L716.392,1471.78L1067.41,769.734Z" style="fill:rgb(131,7,43);"/>
            </g>
            <g transform="matrix(6.47908e-17,-1.16717,1.66081,9.21937e-17,1114.63,3794.05)">
                <path d="M1067.41,769.734L1418.43,1471.78L716.392,1471.78L1067.41,769.734Z" style="fill:rgb(131,7,43);"/>
            </g>
            <g transform="matrix(6.47908e-17,-1.16717,1.66081,9.21937e-17,1114.63,4337.79)">
                <path d="M1067.41,769.734L1418.43,1471.78L716.392,1471.78L1067.41,769.734Z" style="fill:rgb(131,7,43);"/>
            </g>
            <g transform="matrix(6.47908e-17,-1.16717,1.66081,9.21937e-17,1114.63,4881.54)">
                <path d="M1067.41,769.734L1418.43,1471.78L716.392,1471.78L1067.41,769.734Z" style="fill:rgb(131,7,43);"/>
            </g>
            <g transform="matrix(6.47908e-17,-1.16717,1.66081,9.21937e-17,1114.63,5425.28)">
                <path d="M1067.41,769.734L1418.43,1471.78L716.392,1471.78L1067.41,769.734Z" style="fill:rgb(131,7,43);"/>
            </g>
            <g transform="matrix(6.47908e-17,-1.16717,1.66081,9.21937e-17,1114.63,5969.02)">
                <path d="M1067.41,769.734L1418.43,1471.78L716.392,1471.78L1067.41,769.734Z" style="fill:rgb(131,7,43);"/>
            </g>
            <g transform="matrix(6.47908e-17,-1.16717,1.66081,9.21937e-17,1114.63,6512.77)">
                <path d="M1067.41,769.734L1418.43,1471.78L716.392,1471.78L1067.41,769.734Z" style="fill:rgb(131,7,43);"/>
            </g>
            <g transform="matrix(6.47908e-17,-1.16717,1.66081,9.21937e-17,1114.63,7056.51)">
                <path d="M1067.41,769.734L1418.43,1471.78L716.392,1471.78L1067.41,769.734Z" style="fill:rgb(131,7,43);"/>
            </g>
            <g transform="matrix(6.47908e-17,-1.16717,1.66081,9.21937e-17,1114.63,7600.25)">
                <path d="M1067.41,769.734L1418.43,1471.78L716.392,1471.78L1067.41,769.734Z" style="fill:rgb(131,7,43);"/>
            </g>
            <g transform="matrix(6.47908e-17,-1.16717,1.66081,9.21937e-17,1114.63,8143.99)">
                <path d="M1067.41,769.734L1418.43,1471.78L716.392,1471.78L1067.41,769.734Z" style="fill:rgb(131,7,43);"/>
            </g>
            <g transform="matrix(6.47908e-17,-1.16717,1.66081,9.21937e-17,1114.63,8687.74)">
                <path d="M1067.41,769.734L1418.43,1471.78L716.392,1471.78L1067.41,769.734Z" style="fill:rgb(131,7,43);"/>
            </g>
            <g transform="matrix(6.47908e-17,-1.16717,1.66081,9.21937e-17,1114.63,9231.48)">
                <path d="M1067.41,769.734L1418.43,1471.78L716.392,1471.78L1067.41,769.734Z" style="fill:rgb(131,7,43);"/>
            </g>
        </g>
    </g>
</svg>
